<svg xmlns="http://www.w3.org/2000/svg" viewBox="-16 -1 49 60" width="128" height="128">
<path d="M0 0 C0.73714737 -0.00902847 1.47429474 -0.01805695 2.23377991 -0.02735901 C3.7895198 -0.04183536 5.34532021 -0.05074175 6.90112305 -0.05444336 C9.27432135 -0.06635188 11.6449273 -0.11556511 14.01757812 -0.16601562 C15.53253945 -0.17547956 17.04751667 -0.18271474 18.5625 -0.1875 C19.62053078 -0.21679848 19.62053078 -0.21679848 20.69993591 -0.24668884 C24.20708044 -0.21475159 26.29704562 0.34038796 29.30371094 2.16455078 C32.42094526 7.05487036 31.96779239 11.55463218 31.8359375 17.234375 C31.82886276 18.3814946 31.82178802 19.5286142 31.8144989 20.710495 C31.78654438 24.36886213 31.72379911 28.02569038 31.66015625 31.68359375 C31.63507497 34.1659935 31.61226151 36.64841727 31.59179688 39.13085938 C31.53671403 45.21146121 31.45307523 51.29116753 31.34765625 57.37109375 C29.5546875 57.99511719 29.5546875 57.99511719 27.34765625 58.37109375 C24.84861913 56.87402906 22.64611296 55.38099993 20.34765625 53.62109375 C19.73148438 53.16476563 19.1153125 52.7084375 18.48046875 52.23828125 C15.96496358 50.37054565 13.53167425 48.54022794 11.22265625 46.41796875 C9.34918651 45.10233142 9.34918651 45.10233142 7.00390625 45.8671875 C3.05377092 48.10366118 -0.35119573 50.94378106 -3.8359375 53.82617188 C-7.03378577 56.38821267 -9.49542747 58.12258245 -13.65234375 58.37109375 C-15.26915391 56.75428359 -14.79595425 54.98212115 -14.81347656 52.74707031 C-14.82308411 51.7622467 -14.83269165 50.7774231 -14.84259033 49.76275635 C-14.84684021 48.68991394 -14.85109009 47.61707153 -14.85546875 46.51171875 C-14.86116882 45.41518982 -14.8668689 44.31866089 -14.8727417 43.18890381 C-14.88221011 40.86194835 -14.88873295 38.53497936 -14.89257812 36.20800781 C-14.90226464 32.65015119 -14.93326343 29.09287666 -14.96484375 25.53515625 C-14.97137535 23.27734719 -14.9766252 21.01953399 -14.98046875 18.76171875 C-14.99281555 17.69697327 -15.00516235 16.63222778 -15.0178833 15.53521729 C-14.98938118 6.06237343 -14.98938118 6.06237343 -11.65234375 2.37109375 C-8.1825728 -0.24622669 -4.17973549 0.03168698 0 0 Z M-9.65234375 7.37109375 C-9.94354648 9.30977498 -9.94354648 9.30977498 -9.87939453 11.54541016 C-9.87924347 12.40615143 -9.87909241 13.2668927 -9.87893677 14.15371704 C-9.8686142 15.08396698 -9.85829163 16.01421692 -9.84765625 16.97265625 C-9.84482635 17.92425629 -9.84199646 18.87585632 -9.83908081 19.85629272 C-9.82786364 22.90301967 -9.80275638 25.94945529 -9.77734375 28.99609375 C-9.76731593 31.05858951 -9.75818974 33.12108987 -9.75 35.18359375 C-9.72791929 40.24620642 -9.69337905 45.30860065 -9.65234375 50.37109375 C-7.92081417 49.29154116 -6.19222691 48.20726863 -4.46484375 47.12109375 C-3.50191406 46.5178125 -2.53898437 45.91453125 -1.546875 45.29296875 C1.38807543 43.41462009 1.38807543 43.41462009 4.06347656 41.14086914 C6.34765625 39.37109375 6.34765625 39.37109375 8.70703125 39.3046875 C12.42992374 40.80816331 15.40519826 43.02600355 18.59765625 45.43359375 C22.24657652 48.6714357 22.24657652 48.6714357 26.34765625 50.37109375 C26.39699779 44.28386629 26.43334792 38.19675455 26.45751953 32.109375 C26.46759337 30.03741428 26.48125291 27.96546782 26.49853516 25.89355469 C26.52272289 22.91988611 26.53412533 19.94640505 26.54296875 16.97265625 C26.55329132 16.04240631 26.56361389 15.11215637 26.57424927 14.15371704 C26.57440033 13.29297577 26.57455139 12.4322345 26.57470703 11.54541016 C26.58136887 10.40623642 26.58136887 10.40623642 26.58816528 9.24404907 C26.5101578 7.12607076 26.5101578 7.12607076 24.34765625 5.37109375 C21.07564986 5.05842519 21.07564986 5.05842519 17.22265625 5.10546875 C16.16860596 5.10259857 16.16860596 5.10259857 15.09326172 5.09967041 C13.60709271 5.098309 12.1209118 5.10200243 10.63476562 5.11035156 C8.35649979 5.12105221 6.07902248 5.11045536 3.80078125 5.09765625 C2.35807117 5.09897785 0.91536159 5.10154026 -0.52734375 5.10546875 C-1.84476563 5.10772461 -3.1621875 5.10998047 -4.51953125 5.11230469 C-7.75168505 5.03943936 -7.75168505 5.03943936 -9.65234375 7.37109375 Z " fill="#9F9AFC" transform="translate(0,0)"/>
</svg>
